<svg width="553" height="151" viewBox="0 0 553 151" fill="none" xmlns="http://www.w3.org/2000/svg">
<path d="M8.16 88V21.76H40.032C50.464 21.76 55.68 26.976 55.68 37.408V50.176C55.68 60.544 50.464 65.728 40.032 65.728H19.872V88H8.16ZM19.872 55.072H39.744C42.56 55.072 43.968 53.664 43.968 50.848V36.544C43.968 33.792 42.56 32.416 39.744 32.416H19.872V55.072ZM64.9695 28.864V17.44H76.7775V28.864H64.9695ZM65.2575 88V37.6H76.4895V88H65.2575ZM83.5552 86.08L100.451 62.464L84.0352 39.52L84.9952 37.6H95.3632L106.787 54.112L118.307 37.6H128.675L129.635 39.52L113.219 62.464L130.115 86.08L129.251 88H118.787L106.787 70.816L94.7872 88H84.4192L83.5552 86.08ZM136.448 72.832V52.768C136.448 42.656 141.504 37.6 151.616 37.6H164.096C174.144 37.6 179.168 42.656 179.168 52.768V66.976H147.68V73.792C147.68 76.736 149.152 78.208 152.096 78.208H177.248V84.256L172.16 88H151.616C141.504 88 136.448 82.944 136.448 72.832ZM147.68 58.24H167.936V51.808C167.936 48.864 166.464 47.392 163.52 47.392H152.096C149.152 47.392 147.68 48.864 147.68 51.808V58.24ZM189.546 71.296V16.96H200.778V72.448C200.778 76.608 202.89 78.848 207.114 79.168V88.864C195.402 88.864 189.546 83.008 189.546 71.296ZM236.224 88V21.76H268.096C278.528 21.76 283.744 26.976 283.744 37.408V50.176C283.744 60.544 278.528 65.728 268.096 65.728H247.936V88H236.224ZM247.936 55.072H267.808C270.624 55.072 272.032 53.664 272.032 50.848V36.544C272.032 33.792 270.624 32.416 267.808 32.416H247.936V55.072ZM292.553 72.832V52.768C292.553 42.656 297.609 37.6 307.721 37.6H320.201C330.249 37.6 335.273 42.656 335.273 52.768V66.976H303.785V73.792C303.785 76.736 305.257 78.208 308.201 78.208H333.353V84.256L328.265 88H307.721C297.609 88 292.553 82.944 292.553 72.832ZM303.785 58.24H324.041V51.808C324.041 48.864 322.569 47.392 319.625 47.392H308.201C305.257 47.392 303.785 48.864 303.785 51.808V58.24ZM345.651 88V43.84C347.955 39.68 352.371 37.6 358.899 37.6H368.979L374.067 41.344V47.392H361.491C359.315 47.392 357.779 47.936 356.883 49.024V88H345.651ZM380.842 88V32.128C380.842 22.016 385.898 16.96 396.01 16.96H405.13L410.218 20.704V26.752H396.49C393.546 26.752 392.074 28.224 392.074 31.168V37.6H409.258V47.392H392.074V88H380.842ZM415.726 72.832V52.768C415.726 42.656 420.782 37.6 430.894 37.6H443.374C453.422 37.6 458.446 42.656 458.446 52.768V66.976H426.958V73.792C426.958 76.736 428.43 78.208 431.374 78.208H456.526V84.256L451.438 88H430.894C420.782 88 415.726 82.944 415.726 72.832ZM426.958 58.24H447.214V51.808C447.214 48.864 445.742 47.392 442.798 47.392H431.374C428.43 47.392 426.958 48.864 426.958 51.808V58.24ZM468.44 72.832V52.768C468.44 42.656 473.496 37.6 483.608 37.6H501.752L506.84 41.344V47.392H484.088C481.144 47.392 479.672 48.864 479.672 51.808V73.792C479.672 76.736 481.144 78.208 484.088 78.208H506.84V84.256L501.752 88H483.608C473.496 88 468.44 82.944 468.44 72.832ZM515.162 72.832V21.76H526.394V37.6H543.578V47.392H526.394V73.792C526.394 76.736 527.866 78.208 530.81 78.208H544.538V84.256L539.45 88H530.33C520.218 88 515.162 82.944 515.162 72.832Z" fill="#7292ff"/>
<path d="M8.24 151V126.16H19.652C23.324 126.16 25.16 127.996 25.16 131.668V134.152C25.16 134.968 24.92 135.664 24.44 136.24L23.18 137.752L24.692 139.012C25.484 139.66 25.88 140.62 25.88 141.892V145.492C25.88 149.164 24.044 151 20.372 151H8.24ZM11.264 148.264H20.408C22.04 148.264 22.856 147.448 22.856 145.816V141.784C22.856 140.152 22.04 139.336 20.408 139.336H11.264V148.264ZM11.264 136.6H19.688C21.32 136.6 22.136 135.784 22.136 134.152V131.344C22.136 129.712 21.32 128.896 19.688 128.896H11.264V136.6ZM56.248 151V126.16H72.448V128.896H59.272V136.6H71.368V139.336H59.272V148.264H72.448V151H56.248ZM99.8023 150.352L107.938 126.16H112.906L121.042 150.352L120.61 151H118.126L116.074 144.736H104.77L102.718 151H100.234L99.8023 150.352ZM105.67 142H115.174L110.854 128.896H109.99L105.67 142ZM149.838 151V126.16H159.558C165.558 126.16 168.558 129.16 168.558 135.16V142C168.558 148 165.558 151 159.558 151H149.838ZM152.862 148.264H159.738C163.602 148.264 165.534 146.332 165.534 142.468V134.692C165.534 130.828 163.602 128.896 159.738 128.896H152.862V148.264ZM232.275 145.492V131.668C232.275 127.996 234.111 126.16 237.783 126.16H247.935L249.555 127.42V128.896H237.747C236.115 128.896 235.299 129.712 235.299 131.344V145.816C235.299 147.448 236.115 148.264 237.747 148.264H249.555V149.74L247.935 151H237.783C234.111 151 232.275 149.164 232.275 145.492ZM279.088 145.492V131.668C279.088 127.996 280.924 126.16 284.596 126.16H293.02C296.692 126.16 298.528 127.996 298.528 131.668V145.492C298.528 149.164 296.692 151 293.02 151H284.596C280.924 151 279.088 149.164 279.088 145.492ZM282.112 145.816C282.112 147.448 282.928 148.264 284.56 148.264H293.056C294.688 148.264 295.504 147.448 295.504 145.816V131.344C295.504 129.712 294.688 128.896 293.056 128.896H284.56C282.928 128.896 282.112 129.712 282.112 131.344V145.816ZM329.279 145.492V126.16H332.303V145.816C332.303 147.448 333.119 148.264 334.751 148.264H342.527C344.159 148.264 344.975 147.448 344.975 145.816V126.16H347.999V145.492C347.999 149.164 346.163 151 342.491 151H334.787C331.115 151 329.279 149.164 329.279 145.492ZM379.12 151V126.16H382.468L395.536 146.32V126.16H398.56V151H395.212L382.144 130.84V151H379.12ZM427.494 128.896V126.16H447.078V128.896H438.798V151H435.774V128.896H427.494ZM476.015 151V126.16H492.215V128.896H479.039V136.6H491.135V139.336H479.039V148.264H492.215V151H476.015ZM522.089 151V126.16H533.861C537.533 126.16 539.369 127.996 539.369 131.668V135.628C539.369 138.748 538.037 140.524 535.373 140.956L540.089 150.28L539.693 151H537.137L532.133 141.136H525.113V151H522.089ZM525.113 138.4H533.897C535.529 138.4 536.345 137.584 536.345 135.952V131.344C536.345 129.712 535.529 128.896 533.897 128.896H525.113V138.4Z" fill="#b1c2ff"/>
<line x1="4" y1="107" x2="548" y2="107" stroke="#7292ff" stroke-width="2"/>
</svg>
